<svg xmlns="http://www.w3.org/2000/svg" width="1024" height="1024" viewBox="0 0 1024 1024">
  <path d="M 498,333 L 497,334 L 490,334 L 489,335 L 484,335 L 483,336 L 480,336 L 479,337 L 475,337 L 471,339 L 468,339 L 462,342 L 457,343 L 452,346 L 450,346 L 446,349 L 444,349 L 442,351 L 437,353 L 435,355 L 434,355 L 432,357 L 425,361 L 421,365 L 420,365 L 413,372 L 412,372 L 399,386 L 399,387 L 390,398 L 389,401 L 384,408 L 380,416 L 380,418 L 376,425 L 376,427 L 375,428 L 375,430 L 374,431 L 374,433 L 372,437 L 372,440 L 371,441 L 371,444 L 370,445 L 370,448 L 369,449 L 368,463 L 367,464 L 367,491 L 368,492 L 368,500 L 369,501 L 369,507 L 370,508 L 370,512 L 371,513 L 372,520 L 373,521 L 373,523 L 374,524 L 376,532 L 378,535 L 378,537 L 386,553 L 390,558 L 391,561 L 394,564 L 394,565 L 397,568 L 397,569 L 402,574 L 402,575 L 403,575 L 404,577 L 418,590 L 419,590 L 426,596 L 427,596 L 432,600 L 435,601 L 437,603 L 440,604 L 442,606 L 450,610 L 452,610 L 455,612 L 457,612 L 460,614 L 462,614 L 466,616 L 469,616 L 470,617 L 476,618 L 477,619 L 486,620 L 487,621 L 503,622 L 504,623 L 520,623 L 521,622 L 530,622 L 531,621 L 543,620 L 544,619 L 551,618 L 555,616 L 558,616 L 559,615 L 564,614 L 567,612 L 569,612 L 578,607 L 580,607 L 582,605 L 592,600 L 594,598 L 598,596 L 602,592 L 603,592 L 608,587 L 609,587 L 623,573 L 623,572 L 628,567 L 628,566 L 631,563 L 631,562 L 637,554 L 637,551 L 633,549 L 630,546 L 629,546 L 626,543 L 625,543 L 606,528 L 602,526 L 591,517 L 587,515 L 584,512 L 582,512 L 581,513 L 580,516 L 572,526 L 572,527 L 562,537 L 561,537 L 557,541 L 556,541 L 551,545 L 541,550 L 539,550 L 535,552 L 532,552 L 531,553 L 528,553 L 527,554 L 522,554 L 521,555 L 504,555 L 503,554 L 498,554 L 497,553 L 489,552 L 488,551 L 483,550 L 471,544 L 464,538 L 463,538 L 452,527 L 452,526 L 449,523 L 449,522 L 445,517 L 440,507 L 440,505 L 439,504 L 439,502 L 437,498 L 437,495 L 436,494 L 436,489 L 435,488 L 435,465 L 436,464 L 437,456 L 438,455 L 439,450 L 441,447 L 441,445 L 443,441 L 445,439 L 448,433 L 457,423 L 457,422 L 465,415 L 466,415 L 469,412 L 475,409 L 477,407 L 479,407 L 486,403 L 492,402 L 496,400 L 500,400 L 501,399 L 522,399 L 523,400 L 527,400 L 528,401 L 531,401 L 532,402 L 538,403 L 541,405 L 543,405 L 547,407 L 549,409 L 552,410 L 557,414 L 558,414 L 571,426 L 571,427 L 578,435 L 579,438 L 581,440 L 584,445 L 586,445 L 589,442 L 590,442 L 593,439 L 594,439 L 598,435 L 599,435 L 603,431 L 604,431 L 612,424 L 613,424 L 617,420 L 618,420 L 621,417 L 622,417 L 631,409 L 632,409 L 636,405 L 636,401 L 631,394 L 631,393 L 625,386 L 625,385 L 609,368 L 608,368 L 599,360 L 598,360 L 590,354 L 585,352 L 583,350 L 575,346 L 573,346 L 568,343 L 560,341 L 557,339 L 554,339 L 553,338 L 550,338 L 549,337 L 546,337 L 545,336 L 541,336 L 540,335 L 535,335 L 534,334 L 527,334 L 526,333 Z M 533,174 L 488,174 L 487,175 L 476,175 L 475,176 L 468,176 L 467,177 L 456,178 L 455,179 L 452,179 L 451,180 L 446,180 L 445,181 L 442,181 L 441,182 L 438,182 L 437,183 L 434,183 L 433,184 L 426,185 L 425,186 L 423,186 L 419,188 L 416,188 L 410,191 L 402,193 L 399,195 L 397,195 L 391,198 L 389,198 L 386,200 L 384,200 L 360,212 L 358,214 L 353,216 L 348,220 L 345,221 L 343,223 L 342,223 L 340,225 L 333,229 L 330,232 L 329,232 L 326,235 L 325,235 L 322,238 L 321,238 L 318,241 L 317,241 L 312,246 L 311,246 L 306,251 L 305,251 L 281,275 L 281,276 L 275,282 L 275,283 L 270,288 L 270,289 L 264,296 L 262,300 L 259,303 L 259,304 L 253,312 L 252,315 L 248,320 L 247,323 L 245,325 L 241,334 L 239,336 L 234,346 L 234,348 L 230,355 L 230,357 L 227,362 L 226,367 L 224,370 L 223,375 L 221,378 L 221,380 L 219,384 L 219,387 L 218,388 L 218,390 L 216,394 L 216,397 L 215,398 L 215,401 L 214,402 L 214,405 L 213,406 L 213,409 L 212,410 L 212,414 L 211,415 L 210,424 L 209,425 L 208,439 L 207,440 L 207,448 L 206,449 L 206,464 L 205,465 L 205,494 L 206,495 L 206,508 L 207,509 L 207,517 L 208,518 L 209,531 L 210,532 L 210,536 L 211,537 L 211,541 L 212,542 L 212,546 L 213,547 L 213,550 L 214,551 L 214,554 L 215,555 L 216,562 L 217,563 L 217,565 L 219,569 L 219,572 L 221,575 L 221,577 L 222,578 L 224,586 L 226,589 L 226,591 L 228,594 L 228,596 L 233,605 L 233,607 L 237,615 L 239,617 L 242,624 L 246,629 L 247,632 L 249,634 L 251,638 L 254,641 L 254,642 L 260,649 L 260,650 L 267,657 L 267,658 L 282,672 L 283,672 L 287,676 L 288,676 L 291,679 L 292,679 L 297,683 L 300,684 L 302,686 L 320,695 L 325,696 L 331,699 L 334,699 L 338,701 L 341,701 L 345,703 L 349,703 L 350,704 L 354,704 L 355,705 L 360,705 L 361,706 L 367,706 L 368,707 L 405,707 L 406,706 L 413,706 L 414,705 L 424,704 L 425,703 L 428,703 L 429,702 L 432,702 L 436,700 L 442,699 L 445,697 L 447,697 L 461,690 L 463,688 L 468,685 L 468,683 L 462,682 L 461,681 L 458,681 L 457,680 L 454,680 L 453,679 L 451,679 L 450,678 L 448,678 L 447,677 L 439,675 L 436,673 L 434,673 L 431,671 L 429,671 L 426,669 L 424,669 L 406,660 L 404,658 L 399,656 L 397,654 L 396,654 L 394,652 L 393,652 L 391,650 L 384,646 L 374,637 L 373,637 L 360,624 L 358,623 L 358,622 L 344,607 L 344,606 L 336,596 L 336,595 L 332,590 L 331,587 L 329,585 L 328,582 L 326,580 L 317,562 L 317,560 L 315,557 L 314,552 L 312,549 L 312,547 L 311,546 L 311,544 L 309,540 L 309,537 L 307,533 L 307,530 L 306,529 L 306,526 L 305,525 L 305,521 L 304,520 L 304,516 L 303,515 L 303,509 L 302,508 L 302,500 L 301,499 L 301,486 L 300,485 L 300,472 L 301,471 L 301,456 L 302,455 L 302,447 L 303,446 L 304,435 L 305,434 L 305,431 L 306,430 L 306,427 L 307,426 L 308,419 L 309,418 L 309,416 L 310,415 L 310,413 L 311,412 L 311,410 L 312,409 L 314,401 L 316,398 L 316,396 L 321,387 L 321,385 L 325,377 L 327,375 L 331,367 L 337,359 L 338,356 L 341,353 L 341,352 L 344,349 L 344,348 L 348,344 L 348,343 L 369,321 L 370,321 L 376,315 L 377,315 L 381,311 L 382,311 L 389,305 L 390,305 L 398,299 L 401,298 L 403,296 L 408,294 L 410,292 L 418,288 L 420,288 L 427,284 L 429,284 L 432,282 L 437,281 L 440,279 L 443,279 L 446,277 L 449,277 L 453,275 L 456,275 L 457,274 L 460,274 L 461,273 L 464,273 L 465,272 L 474,271 L 475,270 L 489,269 L 490,268 L 503,268 L 504,267 L 522,267 L 523,268 L 536,268 L 537,269 L 544,269 L 545,270 L 556,271 L 557,272 L 565,273 L 566,274 L 569,274 L 573,276 L 576,276 L 577,277 L 579,277 L 580,278 L 582,278 L 583,279 L 591,281 L 594,283 L 596,283 L 622,296 L 624,298 L 627,299 L 629,301 L 636,305 L 639,308 L 640,308 L 643,311 L 644,311 L 648,315 L 649,315 L 675,341 L 675,342 L 679,346 L 679,347 L 685,354 L 685,355 L 693,366 L 698,376 L 700,378 L 703,384 L 703,386 L 710,400 L 710,402 L 711,403 L 711,405 L 712,406 L 712,408 L 713,409 L 713,411 L 714,412 L 714,414 L 715,415 L 715,417 L 717,421 L 717,424 L 718,425 L 718,428 L 719,429 L 719,432 L 720,433 L 720,437 L 721,438 L 722,450 L 723,451 L 723,460 L 724,461 L 724,495 L 723,496 L 723,505 L 722,506 L 722,512 L 721,513 L 720,523 L 719,524 L 719,527 L 718,528 L 717,535 L 715,539 L 715,542 L 713,545 L 711,553 L 706,563 L 706,565 L 699,579 L 697,581 L 695,586 L 693,588 L 693,589 L 691,591 L 691,592 L 689,594 L 689,595 L 687,597 L 687,598 L 685,600 L 681,607 L 677,611 L 677,612 L 672,617 L 672,618 L 650,640 L 649,640 L 644,645 L 643,645 L 635,652 L 634,652 L 628,657 L 627,657 L 622,661 L 619,662 L 611,668 L 606,670 L 604,672 L 599,674 L 597,676 L 573,688 L 571,688 L 564,692 L 562,692 L 557,695 L 552,696 L 544,700 L 539,701 L 533,704 L 530,704 L 527,706 L 525,706 L 524,707 L 522,707 L 518,709 L 515,709 L 514,710 L 512,710 L 508,712 L 505,712 L 504,713 L 502,713 L 501,714 L 499,714 L 495,716 L 492,716 L 491,717 L 488,717 L 487,718 L 484,718 L 483,719 L 480,719 L 479,720 L 476,720 L 475,721 L 471,721 L 470,722 L 467,722 L 466,723 L 463,723 L 462,724 L 452,725 L 451,726 L 447,726 L 446,727 L 442,727 L 441,728 L 428,729 L 427,730 L 420,730 L 419,731 L 410,731 L 409,732 L 398,732 L 397,733 L 358,733 L 357,732 L 345,732 L 344,731 L 336,731 L 335,730 L 321,729 L 320,728 L 315,728 L 314,727 L 305,726 L 304,725 L 301,725 L 300,724 L 296,724 L 295,723 L 292,723 L 288,721 L 284,721 L 284,723 L 288,727 L 289,727 L 296,734 L 297,734 L 310,745 L 311,745 L 317,750 L 320,751 L 328,757 L 331,758 L 333,760 L 342,764 L 344,766 L 348,768 L 350,768 L 352,770 L 354,770 L 366,776 L 368,776 L 371,778 L 376,779 L 379,781 L 381,781 L 382,782 L 384,782 L 385,783 L 387,783 L 388,784 L 390,784 L 394,786 L 397,786 L 401,788 L 408,789 L 412,791 L 416,791 L 417,792 L 421,792 L 422,793 L 430,794 L 431,795 L 436,795 L 437,796 L 451,797 L 452,798 L 460,798 L 461,799 L 486,799 L 487,800 L 490,800 L 491,799 L 510,799 L 511,798 L 522,798 L 523,797 L 536,796 L 537,795 L 542,795 L 543,794 L 547,794 L 548,793 L 551,793 L 552,792 L 561,791 L 562,790 L 565,790 L 569,788 L 572,788 L 573,787 L 576,787 L 580,785 L 583,785 L 586,783 L 592,782 L 595,780 L 603,778 L 606,776 L 608,776 L 616,772 L 618,772 L 625,768 L 627,768 L 645,759 L 647,757 L 652,755 L 654,753 L 662,749 L 670,743 L 673,742 L 676,739 L 683,735 L 686,732 L 687,732 L 690,729 L 691,729 L 694,726 L 695,726 L 699,722 L 700,722 L 713,710 L 714,710 L 723,701 L 724,701 L 724,700 L 726,699 L 745,679 L 745,678 L 751,672 L 751,671 L 755,667 L 755,666 L 767,651 L 767,650 L 771,645 L 772,642 L 776,637 L 777,634 L 779,632 L 780,629 L 782,627 L 793,605 L 793,603 L 798,594 L 799,589 L 801,586 L 801,584 L 803,581 L 803,579 L 804,578 L 804,576 L 805,575 L 805,573 L 807,569 L 807,566 L 809,562 L 809,559 L 810,558 L 810,555 L 812,551 L 812,547 L 813,546 L 813,543 L 814,542 L 815,532 L 816,531 L 817,517 L 818,516 L 818,508 L 819,507 L 819,494 L 820,493 L 820,471 L 819,470 L 819,452 L 818,451 L 818,442 L 817,441 L 817,434 L 816,433 L 815,422 L 814,421 L 814,417 L 813,416 L 813,413 L 812,412 L 812,408 L 811,407 L 810,400 L 809,399 L 809,397 L 807,393 L 807,390 L 806,389 L 806,387 L 805,386 L 805,384 L 804,383 L 804,381 L 803,380 L 803,378 L 802,377 L 800,369 L 798,366 L 798,364 L 796,361 L 796,359 L 793,354 L 793,352 L 782,330 L 780,328 L 774,316 L 768,308 L 767,305 L 764,302 L 762,298 L 759,295 L 759,294 L 756,291 L 756,290 L 753,287 L 753,286 L 742,274 L 742,273 L 724,255 L 723,255 L 709,242 L 708,242 L 704,238 L 703,238 L 696,232 L 695,232 L 684,224 L 681,223 L 673,217 L 666,214 L 664,212 L 640,200 L 638,200 L 628,195 L 623,194 L 620,192 L 618,192 L 617,191 L 615,191 L 614,190 L 612,190 L 611,189 L 609,189 L 605,187 L 602,187 L 601,186 L 595,185 L 591,183 L 583,182 L 582,181 L 574,180 L 573,179 L 568,179 L 567,178 L 562,178 L 561,177 L 556,177 L 555,176 L 546,176 L 545,175 L 534,175 Z" fill="black" fill-rule="evenodd"/>
</svg>